<svg xmlns="http://www.w3.org/2000/svg" viewBox="0 0 400 560" width="400" height="560">
  <defs>
    <linearGradient id="paperGrad" x1="0" y1="0" x2="0" y2="1">
      <stop offset="0%" stop-color="#ede1c9"/>
      <stop offset="100%" stop-color="#e0d4b8"/>
    </linearGradient>
    <linearGradient id="headerGrad" x1="0" y1="0" x2="0" y2="1">
      <stop offset="0%" stop-color="#1e3040"/>
      <stop offset="100%" stop-color="#152535"/>
    </linearGradient>
    <linearGradient id="photoGrad" x1="0" y1="0" x2="0" y2="1">
      <stop offset="0%" stop-color="#2a3d4a"/>
      <stop offset="100%" stop-color="#1a2d3a"/>
    </linearGradient>
    <linearGradient id="chipGrad" x1="0" y1="0" x2="1" y2="1">
      <stop offset="0%" stop-color="#b8a882"/>
      <stop offset="100%" stop-color="#8a7c60"/>
    </linearGradient>
    <linearGradient id="barcodeGrad" x1="0" y1="0" x2="1" y2="0">
      <stop offset="0%" stop-color="#282621"/>
      <stop offset="100%" stop-color="#282621"/>
    </linearGradient>
    <filter id="docShadow" x="-5%" y="-5%" width="110%" height="110%">
      <feDropShadow dx="3" dy="3" stdDeviation="8" flood-color="#060c12" flood-opacity="0.5"/>
    </filter>
    <filter id="subtle">
      <feGaussianBlur stdDeviation="0.5"/>
    </filter>
    <pattern id="mrzPattern" x="0" y="0" width="6" height="14" patternUnits="userSpaceOnUse">
      <rect width="2" height="14" fill="#282621" opacity="0.85"/>
    </pattern>
    <pattern id="securityPattern" x="0" y="0" width="12" height="12" patternUnits="userSpaceOnUse">
      <path d="M0,6 Q3,0 6,6 Q9,12 12,6" fill="none" stroke="#c8bc9e" stroke-width="0.4" opacity="0.4"/>
    </pattern>
    <clipPath id="photoClip">
      <rect x="32" y="108" width="106" height="134"/>
    </clipPath>
  </defs>

  <!-- Document shadow -->
  <rect x="16" y="16" width="368" height="528" rx="6" fill="#060c12" opacity="0.4" filter="url(#docShadow)"/>

  <!-- Document outer border -->
  <rect x="8" y="8" width="384" height="544" rx="5" fill="#2a3d2e" stroke="#1e2e22" stroke-width="2"/>

  <!-- Document body - paper color -->
  <rect x="12" y="12" width="376" height="536" rx="4" fill="url(#paperGrad)"/>

  <!-- Security background pattern -->
  <rect x="12" y="12" width="376" height="536" rx="4" fill="url(#securityPattern)" opacity="0.6"/>

  <!-- Outer decorative border (double) -->
  <rect x="18" y="18" width="364" height="524" rx="3" fill="none" stroke="#6a7a50" stroke-width="2"/>
  <rect x="22" y="22" width="356" height="516" rx="2" fill="none" stroke="#8a9a68" stroke-width="0.8" stroke-dasharray="4,3" opacity="0.6"/>

  <!-- Header section - dark -->
  <rect x="18" y="18" width="364" height="80" rx="3" fill="url(#headerGrad)"/>
  <rect x="22" y="22" width="356" height="72" rx="2" fill="none" stroke="#344550" stroke-width="0.8" opacity="0.5"/>

  <!-- Header: country emblem placeholder -->
  <circle cx="60" cy="58" r="22" fill="none" stroke="#93a2aa" stroke-width="1.5" opacity="0.7"/>
  <circle cx="60" cy="58" r="15" fill="none" stroke="#93a2aa" stroke-width="1" opacity="0.4"/>
  <!-- Emblem star shape -->
  <polygon points="60,42 63,52 73,52 65,59 68,70 60,63 52,70 55,59 47,52 57,52" fill="#93a2aa" opacity="0.5"/>

  <!-- Header text -->
  <text x="200" y="45" font-family="serif" font-size="9" fill="#e5ebee" text-anchor="middle" letter-spacing="4" opacity="0.9">FEDERAL TRANSIT AUTHORITY</text>
  <text x="200" y="60" font-family="serif" font-size="13" fill="#e5ebee" text-anchor="middle" letter-spacing="3" font-weight="bold">ПУНКТ ПРОПУСКА №25</text>
  <text x="200" y="76" font-family="monospace" font-size="7.5" fill="#93a2aa" text-anchor="middle" letter-spacing="3" opacity="0.8">БИОМЕТРИЧЕСКИЙ ДОКУМЕНТ / BIOMETRIC DOCUMENT</text>

  <!-- Diagonal watermark text -->
  <text x="200" y="340" font-family="serif" font-size="42" fill="#b8a882" text-anchor="middle" opacity="0.07" transform="rotate(-30, 200, 340)" letter-spacing="2">ДОКУМЕНТ</text>

  <!-- Left column: photo box -->
  <rect x="30" y="106" width="110" height="138" rx="2" fill="url(#photoGrad)" stroke="#6a7a50" stroke-width="1.5"/>
  <!-- Portrait illustration -->
  <g clip-path="url(#photoClip)">
    <rect x="32" y="108" width="106" height="134" fill="#f5f0e5"/>
    <path d="M24,212 Q50,201 78,198 Q85,197 92,198 Q120,201 146,212 L146,250 L24,250Z" fill="#1c1005"/>
    <line x1="85" y1="218" x2="85" y2="242" stroke="#281505" stroke-width="2.5"/>
    <path d="M80,192 L80,214 Q85,217 90,214 L90,192 Q87,197 85,197 Q83,197 80,192Z" fill="#b88050"/>
    <path d="M61,157 Q61,142 85,138 Q109,142 109,157 Q110,179 101,190 Q93,197 85,197 Q77,197 69,190 Q60,179 61,157Z" fill="#c8906a"/>
    <path d="M62,149 Q61,162 63,177 Q67,189 73,194 Q68,184 66,172 Q63,160 62,149Z" fill="#9a6838" opacity="0.2"/>
    <ellipse cx="62" cy="162" rx="5" ry="7" fill="#b07848"/>
    <ellipse cx="108" cy="162" rx="5" ry="7" fill="#b07848"/>
    <path d="M62,156 Q62,127 85,124 Q108,127 108,156 Q106,137 85,134 Q64,137 62,156Z" fill="#5a3820"/>
    <line x1="70" y1="127" x2="70" y2="132" stroke="#3e2410" stroke-width="1.2" opacity="0.6"/>
    <line x1="75" y1="125" x2="75" y2="130" stroke="#3e2410" stroke-width="1.2" opacity="0.6"/>
    <line x1="80" y1="124" x2="80" y2="129" stroke="#3e2410" stroke-width="1.2" opacity="0.6"/>
    <line x1="85" y1="124" x2="85" y2="129" stroke="#3e2410" stroke-width="1.2" opacity="0.6"/>
    <line x1="90" y1="124" x2="90" y2="129" stroke="#3e2410" stroke-width="1.2" opacity="0.6"/>
    <line x1="95" y1="125" x2="95" y2="130" stroke="#3e2410" stroke-width="1.2" opacity="0.6"/>
    <line x1="100" y1="127" x2="100" y2="132" stroke="#3e2410" stroke-width="1.2" opacity="0.6"/>
    <path d="M67,151 Q73,148 80,150" fill="none" stroke="#3a2010" stroke-width="2.2" stroke-linecap="round"/>
    <path d="M90,150 Q97,148 104,151" fill="none" stroke="#3a2010" stroke-width="2.2" stroke-linecap="round"/>
    <ellipse cx="75" cy="159" rx="7" ry="5" fill="white"/>
    <ellipse cx="75" cy="159" rx="5" ry="3.8" fill="#2a1808"/>
    <circle cx="75" cy="159" r="3" fill="#0f0a04"/>
    <circle cx="76.5" cy="157.5" r="1.1" fill="white" opacity="0.9"/>
    <ellipse cx="96" cy="159" rx="7" ry="5" fill="white"/>
    <ellipse cx="96" cy="159" rx="5" ry="3.8" fill="#2a1808"/>
    <circle cx="96" cy="159" r="3" fill="#0f0a04"/>
    <circle cx="97.5" cy="157.5" r="1.1" fill="white" opacity="0.9"/>
    <path d="M83,167 L80,176 Q82,179 85,178 Q88,179 90,176 L87,167Z" fill="#9a6035" opacity="0.2"/>
    <ellipse cx="81" cy="177" rx="2.5" ry="1.5" fill="#7a4828" opacity="0.28"/>
    <ellipse cx="89" cy="177" rx="2.5" ry="1.5" fill="#7a4828" opacity="0.28"/>
    <path d="M76,186 Q85,193 94,186" fill="none" stroke="#5a3018" stroke-width="2.1" stroke-linecap="round"/>
    <path d="M76,186 Q74,187.5 75,190" fill="none" stroke="#5a3018" stroke-width="1.3" stroke-linecap="round"/>
    <path d="M94,186 Q96,187.5 95,190" fill="none" stroke="#5a3018" stroke-width="1.3" stroke-linecap="round"/>
    <ellipse cx="89" cy="141" rx="11" ry="5" fill="#e8c090" opacity="0.18"/>
    <ellipse cx="104" cy="165" rx="5" ry="3.5" fill="#d4a070" opacity="0.16"/>
  </g>
  <!-- Photo frame corners -->
  <path d="M30,106 L44,106 L44,108" fill="none" stroke="#8a9a68" stroke-width="1.5"/>
  <path d="M126,106 L140,106 L140,108" fill="none" stroke="#8a9a68" stroke-width="1.5"/>
  <path d="M30,244 L44,244 L44,242" fill="none" stroke="#8a9a68" stroke-width="1.5"/>
  <path d="M126,244 L140,244 L140,242" fill="none" stroke="#8a9a68" stroke-width="1.5"/>
  <!-- Photo label -->
  <text x="85" y="255" font-family="monospace" font-size="6" fill="#6a7a50" text-anchor="middle">ФОТО / PHOTO</text>

  <!-- Right column: data fields -->
  <!-- Name field -->
  <text x="158" y="116" font-family="monospace" font-size="6.5" fill="#5a6a45" letter-spacing="1">ИМЯ / NAME</text>
  <line x1="158" y1="118" x2="375" y2="118" stroke="#6a7a50" stroke-width="0.8"/>
  <text x="158" y="134" font-family="serif" font-size="16" fill="#282621" letter-spacing="2" font-weight="bold">NIKITA</text>

  <!-- Sector field -->
  <text x="158" y="148" font-family="monospace" font-size="6.5" fill="#5a6a45" letter-spacing="1">СЕКТОР / SECTOR</text>
  <line x1="158" y1="150" x2="375" y2="150" stroke="#6a7a50" stroke-width="0.8"/>
  <text x="158" y="165" font-family="monospace" font-size="12" fill="#282621" letter-spacing="1" font-weight="bold">24 → 25</text>

  <!-- Status field -->
  <text x="158" y="180" font-family="monospace" font-size="6.5" fill="#5a6a45" letter-spacing="1">СТАТУС / STATUS</text>
  <line x1="158" y1="182" x2="375" y2="182" stroke="#6a7a50" stroke-width="0.8"/>
  <text x="158" y="196" font-family="monospace" font-size="10" fill="#282621" letter-spacing="1">ТРАНЗИТ / TRANSIT</text>

  <!-- Date field -->
  <text x="158" y="212" font-family="monospace" font-size="6.5" fill="#5a6a45" letter-spacing="1">ДАТА / DATE</text>
  <line x1="158" y1="214" x2="375" y2="214" stroke="#6a7a50" stroke-width="0.8"/>
  <text x="158" y="228" font-family="monospace" font-size="9" fill="#282621" letter-spacing="1">2026.05.27</text>

  <!-- Document number field -->
  <text x="158" y="244" font-family="monospace" font-size="6.5" fill="#5a6a45" letter-spacing="1">№ ДОКУМЕНТА / DOC №</text>
  <line x1="158" y1="246" x2="375" y2="246" stroke="#6a7a50" stroke-width="0.8"/>
  <text x="158" y="260" font-family="monospace" font-size="9" fill="#282621" letter-spacing="1">PP-25-NK-001</text>

  <!-- Biometric chip symbol (below photo) -->
  <g transform="translate(30, 266)">
    <rect width="50" height="40" rx="4" fill="url(#chipGrad)" stroke="#8a7c60" stroke-width="1"/>
    <!-- Chip circuit lines -->
    <line x1="10" y1="0" x2="10" y2="6" stroke="#6a5c40" stroke-width="1"/>
    <line x1="20" y1="0" x2="20" y2="6" stroke="#6a5c40" stroke-width="1"/>
    <line x1="30" y1="0" x2="30" y2="6" stroke="#6a5c40" stroke-width="1"/>
    <line x1="40" y1="0" x2="40" y2="6" stroke="#6a5c40" stroke-width="1"/>
    <line x1="10" y1="34" x2="10" y2="40" stroke="#6a5c40" stroke-width="1"/>
    <line x1="20" y1="34" x2="20" y2="40" stroke="#6a5c40" stroke-width="1"/>
    <line x1="30" y1="34" x2="30" y2="40" stroke="#6a5c40" stroke-width="1"/>
    <line x1="40" y1="34" x2="40" y2="40" stroke="#6a5c40" stroke-width="1"/>
    <line x1="0" y1="12" x2="6" y2="12" stroke="#6a5c40" stroke-width="1"/>
    <line x1="0" y1="20" x2="6" y2="20" stroke="#6a5c40" stroke-width="1"/>
    <line x1="0" y1="28" x2="6" y2="28" stroke="#6a5c40" stroke-width="1"/>
    <line x1="44" y1="12" x2="50" y2="12" stroke="#6a5c40" stroke-width="1"/>
    <line x1="44" y1="20" x2="50" y2="20" stroke="#6a5c40" stroke-width="1"/>
    <line x1="44" y1="28" x2="50" y2="28" stroke="#6a5c40" stroke-width="1"/>
    <!-- Chip center -->
    <rect x="8" y="8" width="34" height="24" rx="2" fill="#a09070" stroke="#8a7c60" stroke-width="0.8"/>
    <rect x="12" y="12" width="26" height="16" rx="1" fill="#8a7c60"/>
    <!-- Circuit pattern on chip -->
    <line x1="12" y1="16" x2="38" y2="16" stroke="#6a5c40" stroke-width="0.6" opacity="0.7"/>
    <line x1="12" y1="20" x2="38" y2="20" stroke="#6a5c40" stroke-width="0.6" opacity="0.7"/>
    <line x1="12" y1="24" x2="38" y2="24" stroke="#6a5c40" stroke-width="0.6" opacity="0.7"/>
    <line x1="18" y1="12" x2="18" y2="28" stroke="#6a5c40" stroke-width="0.6" opacity="0.7"/>
    <line x1="25" y1="12" x2="25" y2="28" stroke="#6a5c40" stroke-width="0.6" opacity="0.7"/>
    <line x1="32" y1="12" x2="32" y2="28" stroke="#6a5c40" stroke-width="0.6" opacity="0.7"/>
  </g>
  <text x="55" y="315" font-family="monospace" font-size="5.5" fill="#6a7a50" text-anchor="middle">БИОЧИП</text>

  <!-- Data fields continuation - right side under chip area -->
  <!-- Classification box -->
  <rect x="100" y="268" width="275" height="48" rx="2" fill="#e0d4b8" stroke="#6a7a50" stroke-width="1"/>
  <text x="112" y="282" font-family="monospace" font-size="6" fill="#5a6a45" letter-spacing="1">РАЗРЕШЁННЫЕ СЕКТОРЫ / PERMITTED SECTORS</text>
  <line x1="108" y1="285" x2="368" y2="285" stroke="#6a7a50" stroke-width="0.6"/>
  <text x="112" y="298" font-family="serif" font-size="11" fill="#282621" font-weight="bold">SECTOR 25 // ВОЗРАСТ 25</text>
  <line x1="108" y1="302" x2="368" y2="302" stroke="#6a7a50" stroke-width="0.6" opacity="0.5"/>
  <text x="112" y="312" font-family="monospace" font-size="7" fill="#282621">ОГРАНИЧЕНИЙ НЕТ / NO RESTRICTIONS</text>

  <!-- Separator line -->
  <line x1="30" y1="330" x2="370" y2="330" stroke="#6a7a50" stroke-width="1.5"/>
  <line x1="30" y1="333" x2="370" y2="333" stroke="#6a7a50" stroke-width="0.5" opacity="0.5"/>

  <!-- MRZ section label -->
  <text x="30" y="346" font-family="monospace" font-size="6" fill="#5a6a45" letter-spacing="2">ЗОНА МАШИННОГО СЧИТЫВАНИЯ / MACHINE READABLE ZONE</text>

  <!-- MRZ lines -->
  <rect x="30" y="350" width="340" height="22" rx="1" fill="#d8ccb0" stroke="#6a7a50" stroke-width="0.5"/>
  <text x="35" y="365" font-family="monospace" font-size="9.5" fill="#282621" letter-spacing="1.5">PP&lt;RUS&lt;NIKITA&lt;&lt;&lt;&lt;&lt;&lt;&lt;&lt;&lt;&lt;&lt;&lt;&lt;&lt;&lt;&lt;&lt;&lt;&lt;&lt;&lt;&lt;</text>

  <rect x="30" y="376" width="340" height="22" rx="1" fill="#d8ccb0" stroke="#6a7a50" stroke-width="0.5"/>
  <text x="35" y="391" font-family="monospace" font-size="9.5" fill="#282621" letter-spacing="1.5">PP250001&lt;2RUS2605256M2512310&lt;25NK1</text>

  <!-- Barcode strips section -->
  <text x="30" y="412" font-family="monospace" font-size="6" fill="#5a6a45" letter-spacing="2">КОД ДОКУМЕНТА / DOCUMENT CODE</text>

  <!-- Barcode strip 1 -->
  <g transform="translate(30, 416)">
    <!-- Individual barcode bars -->
    <rect x="0" y="0" width="2" height="28" fill="#282621"/>
    <rect x="4" y="0" width="1" height="28" fill="#282621"/>
    <rect x="7" y="0" width="3" height="28" fill="#282621"/>
    <rect x="12" y="0" width="1" height="28" fill="#282621"/>
    <rect x="15" y="0" width="2" height="28" fill="#282621"/>
    <rect x="19" y="0" width="4" height="28" fill="#282621"/>
    <rect x="25" y="0" width="1" height="28" fill="#282621"/>
    <rect x="28" y="0" width="2" height="28" fill="#282621"/>
    <rect x="32" y="0" width="3" height="28" fill="#282621"/>
    <rect x="37" y="0" width="1" height="28" fill="#282621"/>
    <rect x="40" y="0" width="2" height="28" fill="#282621"/>
    <rect x="44" y="0" width="4" height="28" fill="#282621"/>
    <rect x="50" y="0" width="1" height="28" fill="#282621"/>
    <rect x="53" y="0" width="2" height="28" fill="#282621"/>
    <rect x="57" y="0" width="3" height="28" fill="#282621"/>
    <rect x="62" y="0" width="1" height="28" fill="#282621"/>
    <rect x="65" y="0" width="2" height="28" fill="#282621"/>
    <rect x="69" y="0" width="1" height="28" fill="#282621"/>
    <rect x="72" y="0" width="4" height="28" fill="#282621"/>
    <rect x="78" y="0" width="2" height="28" fill="#282621"/>
    <rect x="82" y="0" width="1" height="28" fill="#282621"/>
    <rect x="85" y="0" width="3" height="28" fill="#282621"/>
    <rect x="90" y="0" width="2" height="28" fill="#282621"/>
    <rect x="94" y="0" width="1" height="28" fill="#282621"/>
    <rect x="97" y="0" width="4" height="28" fill="#282621"/>
    <rect x="103" y="0" width="2" height="28" fill="#282621"/>
    <rect x="107" y="0" width="1" height="28" fill="#282621"/>
    <rect x="110" y="0" width="3" height="28" fill="#282621"/>
    <rect x="115" y="0" width="2" height="28" fill="#282621"/>
    <rect x="119" y="0" width="1" height="28" fill="#282621"/>
    <rect x="122" y="0" width="4" height="28" fill="#282621"/>
    <rect x="128" y="0" width="1" height="28" fill="#282621"/>
    <rect x="131" y="0" width="3" height="28" fill="#282621"/>
    <rect x="136" y="0" width="2" height="28" fill="#282621"/>
    <rect x="140" y="0" width="1" height="28" fill="#282621"/>
    <rect x="143" y="0" width="4" height="28" fill="#282621"/>
    <rect x="149" y="0" width="2" height="28" fill="#282621"/>
    <rect x="153" y="0" width="1" height="28" fill="#282621"/>
    <rect x="156" y="0" width="3" height="28" fill="#282621"/>
    <rect x="161" y="0" width="2" height="28" fill="#282621"/>
    <rect x="165" y="0" width="1" height="28" fill="#282621"/>
    <rect x="168" y="0" width="2" height="28" fill="#282621"/>
    <rect x="172" y="0" width="4" height="28" fill="#282621"/>
    <rect x="178" y="0" width="1" height="28" fill="#282621"/>
    <rect x="181" y="0" width="3" height="28" fill="#282621"/>
    <rect x="186" y="0" width="2" height="28" fill="#282621"/>
    <rect x="190" y="0" width="1" height="28" fill="#282621"/>
    <rect x="193" y="0" width="4" height="28" fill="#282621"/>
    <rect x="199" y="0" width="2" height="28" fill="#282621"/>
    <rect x="203" y="0" width="1" height="28" fill="#282621"/>
    <rect x="206" y="0" width="3" height="28" fill="#282621"/>
    <rect x="211" y="0" width="1" height="28" fill="#282621"/>
    <rect x="214" y="0" width="2" height="28" fill="#282621"/>
    <rect x="218" y="0" width="4" height="28" fill="#282621"/>
    <rect x="224" y="0" width="1" height="28" fill="#282621"/>
    <rect x="227" y="0" width="2" height="28" fill="#282621"/>
    <rect x="231" y="0" width="3" height="28" fill="#282621"/>
    <rect x="236" y="0" width="1" height="28" fill="#282621"/>
    <rect x="239" y="0" width="2" height="28" fill="#282621"/>
    <rect x="243" y="0" width="4" height="28" fill="#282621"/>
    <rect x="249" y="0" width="2" height="28" fill="#282621"/>
    <rect x="253" y="0" width="1" height="28" fill="#282621"/>
    <rect x="256" y="0" width="3" height="28" fill="#282621"/>
    <rect x="261" y="0" width="2" height="28" fill="#282621"/>
    <rect x="265" y="0" width="1" height="28" fill="#282621"/>
    <rect x="268" y="0" width="4" height="28" fill="#282621"/>
    <rect x="274" y="0" width="1" height="28" fill="#282621"/>
    <rect x="277" y="0" width="2" height="28" fill="#282621"/>
    <rect x="281" y="0" width="3" height="28" fill="#282621"/>
    <rect x="286" y="0" width="2" height="28" fill="#282621"/>
    <rect x="290" y="0" width="4" height="28" fill="#282621"/>
    <rect x="296" y="0" width="1" height="28" fill="#282621"/>
    <rect x="299" y="0" width="2" height="28" fill="#282621"/>
    <rect x="303" y="0" width="3" height="28" fill="#282621"/>
    <rect x="308" y="0" width="1" height="28" fill="#282621"/>
    <rect x="311" y="0" width="4" height="28" fill="#282621"/>
    <rect x="317" y="0" width="2" height="28" fill="#282621"/>
    <rect x="321" y="0" width="1" height="28" fill="#282621"/>
    <rect x="324" y="0" width="3" height="28" fill="#282621"/>
    <rect x="329" y="0" width="2" height="28" fill="#282621"/>
    <rect x="333" y="0" width="1" height="28" fill="#282621"/>
    <rect x="336" y="0" width="4" height="28" fill="#282621"/>
  </g>

  <text x="200" y="455" font-family="monospace" font-size="7" fill="#282621" text-anchor="middle">PP-25 / NK / 001 / TRANSIT / SECTOR-25</text>

  <!-- Bottom decorative border -->
  <rect x="30" y="462" width="340" height="1" fill="#6a7a50" opacity="0.8"/>
  <rect x="30" y="466" width="340" height="1" fill="#6a7a50" opacity="0.4"/>

  <!-- Footer text -->
  <text x="200" y="482" font-family="monospace" font-size="6.5" fill="#5a6a45" text-anchor="middle" letter-spacing="2">ДОКУМЕНТ ДЕЙСТВИТЕЛЕН ДО: 27.05.2027</text>
  <text x="200" y="496" font-family="monospace" font-size="6" fill="#8a9a68" text-anchor="middle" letter-spacing="1.5" opacity="0.7">VALID UNTIL: 27.05.2027</text>

  <!-- Corner decorations (document corners) -->
  <!-- Top-left -->
  <path d="M18,18 L50,18 L18,18 L18,50" fill="none" stroke="#8a9a68" stroke-width="2"/>
  <!-- Top-right -->
  <path d="M382,18 L350,18 L382,18 L382,50" fill="none" stroke="#8a9a68" stroke-width="2"/>
  <!-- Bottom-left -->
  <path d="M18,542 L50,542 L18,542 L18,510" fill="none" stroke="#8a9a68" stroke-width="2"/>
  <!-- Bottom-right -->
  <path d="M382,542 L350,542 L382,542 L382,510" fill="none" stroke="#8a9a68" stroke-width="2"/>

  <!-- Outer document frame line (bottom of header / top) -->
  <line x1="18" y1="98" x2="382" y2="98" stroke="#6a7a50" stroke-width="1.5"/>
</svg>
